<svg width="17" height="15" viewBox="0 0 17 15" fill="none" xmlns="http://www.w3.org/2000/svg">
<path fill-rule="evenodd" clip-rule="evenodd" d="M16.7998 7.2C16.7998 7.69706 16.3969 8.1 15.8998 8.1L3.1343 8.1L8.1236 12.8513C8.4819 13.1958 8.49307 13.7655 8.14855 14.1238C7.80404 14.4821 7.2343 14.4933 6.87601 14.1488L0.276008 7.84875C0.0995366 7.67907 -0.000194875 7.44482 -0.000194864 7.2C-0.000194854 6.95519 0.0995366 6.72093 0.276008 6.55125L6.87601 0.251251C7.2343 -0.0932631 7.80404 -0.0820918 8.14855 0.276203C8.49307 0.634497 8.4819 1.20424 8.1236 1.54875L3.1343 6.3L15.8998 6.3C16.3969 6.3 16.7998 6.70295 16.7998 7.2Z" fill="#808080"/>
</svg>
