<svg width="17" height="15" viewBox="0 0 17 15" fill="none" xmlns="http://www.w3.org/2000/svg">
<path fill-rule="evenodd" clip-rule="evenodd" d="M-3.14722e-07 7.19999C-3.36449e-07 6.70294 0.402943 6.29999 0.9 6.29999L13.6655 6.29999L8.6762 1.54874C8.31791 1.20423 8.30674 0.634489 8.65125 0.276194C8.99576 -0.0821003 9.5655 -0.0932717 9.9238 0.251242L16.5238 6.55124C16.7003 6.72093 16.8 6.95518 16.8 7.19999C16.8 7.44481 16.7003 7.67906 16.5238 7.84874L9.9238 14.1487C9.5655 14.4933 8.99576 14.4821 8.65125 14.1238C8.30674 13.7655 8.31791 13.1958 8.6762 12.8512L13.6655 8.09999L0.9 8.09999C0.402943 8.09999 -2.92995e-07 7.69705 -3.14722e-07 7.19999Z" fill="white"/>
</svg>
