<svg width="20" height="20" viewBox="0 0 20 20" fill="none" xmlns="http://www.w3.org/2000/svg">
<g clip-path="url(#clip0_139_8320)">
<g clip-path="url(#clip1_139_8320)">
<path d="M0.269455 13.7616H10.11V15.5697H16.2615V13.7655H18.7054C18.8637 15.9158 18.8761 17.8304 16.6707 19.2897C16.6437 19.3075 16.6221 19.3318 16.5623 19.385C16.8335 19.6103 17.1009 19.8329 17.3655 20.0529C17.0082 20.3945 16.7212 20.669 16.3922 20.9842C16.1019 20.6848 15.7879 20.3373 15.4458 20.0207C15.3453 19.9275 15.1673 19.8894 15.0215 19.8802C14.7831 19.8657 14.5414 19.9045 14.301 19.9052C11.1057 19.9071 7.91048 19.9065 4.71457 19.9065C4.56154 19.9065 4.398 19.936 4.25679 19.8933C3.83054 19.7653 3.55994 19.9629 3.30642 20.2684C3.09034 20.5284 2.84405 20.7629 2.61877 21.0007C2.31468 20.6808 2.03949 20.3918 1.73474 20.0707C1.939 19.89 2.19843 19.6602 2.49004 19.4014C2.28906 19.2576 2.13866 19.1577 1.99614 19.0474C0.928209 18.2244 0.350896 17.1329 0.275366 15.7924C0.23793 15.1284 0.268798 14.4604 0.268798 13.7616H0.269455Z" fill="white"/>
<path d="M0.275543 8.78709C0.270288 8.66821 0.261093 8.56116 0.261093 8.4541C0.260437 6.71363 0.258466 4.97381 0.261093 3.23333C0.26372 1.32078 1.59108 -0.0138086 3.50101 -1.61554e-05C4.14203 0.00458133 4.80275 -0.00855435 5.41882 0.136595C6.5117 0.394711 7.20001 1.15264 7.53235 2.22057C7.59671 2.42811 7.68012 2.5286 7.90803 2.59034C9.19401 2.93909 10.0964 4.141 10.1128 5.48216C10.1155 5.69824 10.1128 5.91432 10.1128 6.14879H4.02578C3.73548 4.61389 4.56959 3.02973 6.31335 2.53517C6.15573 1.85014 5.48121 1.27217 4.7732 1.24722C4.23792 1.22817 3.70067 1.2262 3.16539 1.24722C2.24261 1.28334 1.50044 2.13059 1.4965 3.14663C1.48994 4.89762 1.49453 6.64926 1.49453 8.40025C1.49453 8.51978 1.49453 8.63932 1.49453 8.78644H0.274229L0.275543 8.78709Z" fill="white"/>
<path d="M10.0926 12.5327C9.96387 12.5327 9.86732 12.5327 9.77077 12.5327C6.64317 12.5327 3.51491 12.5334 0.387306 12.5321C-0.285898 12.5321 -0.769947 12.2135 -0.940054 11.6697C-1.1962 10.8514 -0.61626 10.0632 0.267771 10.0514C1.20829 10.0389 2.1488 10.0481 3.08931 10.0481C5.29873 10.0481 7.5075 10.0481 9.71692 10.0481C9.83514 10.0481 9.95336 10.0481 10.0926 10.0481V12.5321V12.5327Z" fill="white"/>
<path d="M15.0237 14.3711H11.3634C11.3575 14.2555 11.3477 14.1504 11.3477 14.0453C11.3464 12.7771 11.3464 11.5082 11.3477 10.2399C11.3483 9.32242 11.8494 8.81801 12.763 8.81407C13.1019 8.81275 13.4408 8.80553 13.7797 8.81604C14.5409 8.84034 15.0381 9.35197 15.0401 10.1152C15.044 11.4386 15.0414 12.7613 15.0401 14.0848C15.0401 14.1708 15.0309 14.2562 15.0237 14.3711Z" fill="white"/>
<path d="M16.2832 12.5209V10.0482C16.8782 10.0482 17.4648 10.0462 18.0506 10.0488C18.356 10.0501 18.668 10.0252 18.9668 10.0744C19.619 10.1821 20.0433 10.7161 20.0164 11.3394C19.9901 11.9509 19.5389 12.4756 18.8985 12.5091C18.0394 12.5544 17.1764 12.5203 16.2839 12.5203L16.2832 12.5209Z" fill="white"/>
</g>
</g>
<defs>
<clipPath id="clip0_139_8320">
<rect width="20" height="20" fill="white"/>
</clipPath>
<clipPath id="clip1_139_8320">
<rect width="21.0171" height="21" fill="white" transform="translate(-1)"/>
</clipPath>
</defs>
</svg>
