<svg width="20" height="20" viewBox="0 0 20 20" fill="none" xmlns="http://www.w3.org/2000/svg">
<g clip-path="url(#clip0_139_8314)">
<g clip-path="url(#clip1_139_8314)">
<path d="M10.0119 17.4597C7.01369 17.4597 4.01627 17.4597 1.01806 17.4597C0.714934 17.4597 0.574786 17.5984 0.574786 17.8977C0.574786 17.9752 0.578723 18.0527 0.573999 18.1295C0.5677 18.2225 0.558252 18.3155 0.54093 18.4062C0.476368 18.7372 0.159068 19.0023 -0.220432 18.9984C-0.601507 18.9946 -0.917233 18.7116 -0.974709 18.3481C-0.988094 18.2628 -0.99518 18.1752 -0.99518 18.0891C-0.995967 16.3279 -1.00778 14.5659 -0.991243 12.8046C-0.981795 11.7783 -0.602295 10.8853 0.125212 10.1419C0.566913 9.69069 1.09207 9.36976 1.69282 9.16511C2.16522 9.00465 2.65338 8.95581 3.15098 8.95581C7.76246 8.95736 12.3739 8.95348 16.9854 8.95891C18.3365 8.96046 19.4309 9.4969 20.2419 10.5636C20.6403 11.0884 20.8781 11.6845 20.9592 12.3357C20.9867 12.555 20.9985 12.7783 20.9993 13C21.0025 14.7101 21.0017 16.4202 21.0009 18.1302C21.0009 18.3977 20.934 18.6411 20.7104 18.8178C20.4741 19.0046 20.2104 19.0535 19.9293 18.9395C19.66 18.8295 19.49 18.6271 19.4514 18.338C19.4317 18.1922 19.4341 18.0426 19.4301 17.8953C19.4238 17.6574 19.3238 17.5139 19.1239 17.4698C19.0798 17.4597 19.0333 17.4605 18.9876 17.4605C15.9965 17.4605 13.0054 17.4605 10.0135 17.4605L10.0119 17.4597Z" fill="white"/>
<path d="M9.90197 2C11.8467 2 13.7907 2 15.7346 2C16.3858 2 16.9944 2.14341 17.5195 2.53953C18.1951 3.04884 18.5895 3.71938 18.6226 4.56124C18.651 5.27519 18.6384 5.9907 18.6415 6.70543C18.6439 7.16589 18.6415 7.62636 18.6415 8.08682C18.6415 8.12791 18.6391 8.17132 18.6281 8.21085C18.5943 8.33566 18.5258 8.38527 18.3966 8.36124C18.2557 8.33488 18.1195 8.27829 17.9786 8.26279C17.6471 8.22713 17.3148 8.20233 16.9818 8.18527C16.7597 8.17364 16.6913 8.13411 16.6598 7.91938C16.559 7.23876 15.9189 6.62636 15.1 6.63566C14.1867 6.64574 13.2734 6.63798 12.3609 6.63798C11.6814 6.63798 11.1011 7.03643 10.8704 7.66434C10.8373 7.75426 10.8247 7.85194 10.8074 7.94651C10.7751 8.11628 10.7114 8.17984 10.5397 8.18217C10.1799 8.18605 9.8193 8.18605 9.45949 8.18217C9.29414 8.18062 9.22879 8.11628 9.19887 7.92791C9.15715 7.66357 9.05322 7.42791 8.88315 7.22093C8.5753 6.84574 8.1769 6.64186 7.6856 6.63953C6.74315 6.63488 5.80069 6.63721 4.85745 6.63876C4.06538 6.63953 3.44574 7.24884 3.34496 7.91783C3.31268 8.13411 3.24733 8.17209 3.0253 8.18605C2.65761 8.21008 2.28992 8.24419 1.92302 8.28295C1.81043 8.29457 1.70256 8.34264 1.59076 8.36124C1.4703 8.38062 1.41439 8.34031 1.38054 8.22403C1.36715 8.17829 1.36085 8.12946 1.36085 8.0814C1.36007 6.97674 1.34511 5.87209 1.364 4.76744C1.38369 3.61163 1.92617 2.76202 2.98751 2.24806C3.40795 2.04574 3.86382 2 4.32521 2C6.18413 2 8.04305 2 9.90197 2Z" fill="white"/>
</g>
</g>
<defs>
<clipPath id="clip0_139_8314">
<rect width="20" height="20" fill="white"/>
</clipPath>
<clipPath id="clip1_139_8314">
<rect width="22" height="17" fill="white" transform="translate(-1 2)"/>
</clipPath>
</defs>
</svg>
