<svg width="38" height="36" viewBox="0 0 38 36" fill="none" xmlns="http://www.w3.org/2000/svg">
<rect x="0.5" y="0.5" width="37" height="35" rx="17.5" fill="#1A1A1A"/>
<rect x="0.5" y="0.5" width="37" height="35" rx="17.5" stroke="#262626"/>
<path d="M18.1586 9.30996C18.5522 8.69719 19.4478 8.6972 19.8414 9.30996L22.1986 12.9799C22.334 13.1907 22.5436 13.343 22.786 13.4067L27.0047 14.5144C27.7091 14.6994 27.9859 15.5512 27.5247 16.1148L24.7628 19.4907C24.6042 19.6847 24.5241 19.9311 24.5385 20.1813L24.7886 24.5358C24.8303 25.2629 24.1058 25.7893 23.4272 25.5249L19.363 23.9415C19.1296 23.8505 18.8704 23.8505 18.637 23.9415L14.5728 25.5249C13.8942 25.7893 13.1697 25.2629 13.2114 24.5358L13.4615 20.1813C13.4759 19.9311 13.3958 19.6847 13.2372 19.4907L10.4753 16.1148C10.0141 15.5512 10.2909 14.6994 10.9953 14.5144L15.214 13.4067C15.4564 13.343 15.666 13.1907 15.8014 12.9799L18.1586 9.30996Z" fill="#FFE600"/>
</svg>
