<svg width="114" height="34" viewBox="0 0 114 34" fill="none" xmlns="http://www.w3.org/2000/svg">
<path d="M17 34C7.61222 34 0 26.3878 0 17H17V34Z" fill="#703BF7"/>
<path d="M0 0C9.38778 0 17 7.61222 17 17H0V0Z" fill="#703BF7"/>
<path d="M17 34C26.3878 34 34 26.3878 34 17H17V34Z" fill="#703BF7"/>
<path d="M34 17C34 7.61222 26.3878 0 17 0V17H34Z" fill="#703BF7"/>
<path d="M111.081 24.6928V19.0214C111.081 18.3662 110.87 17.827 110.447 17.4039C110.037 16.9807 109.505 16.7692 108.85 16.7692C108.413 16.7692 108.024 16.8647 107.683 17.0558C107.341 17.2469 107.075 17.5131 106.884 17.8543C106.693 18.1956 106.597 18.5846 106.597 19.0214L105.717 18.53C105.717 17.7792 105.881 17.1172 106.208 16.5439C106.536 15.957 106.986 15.4997 107.56 15.1721C108.147 14.8309 108.802 14.6603 109.525 14.6603C110.262 14.6603 110.918 14.8514 111.491 15.2336C112.064 15.6021 112.515 16.0867 112.842 16.6873C113.17 17.2742 113.334 17.8884 113.334 18.53V24.6928H111.081ZM104.345 24.6928V14.865H106.597V24.6928H104.345Z" fill="white"/>
<path d="M99.567 24.6928V14.865H101.819V24.6928H99.567ZM100.693 13.0632C100.311 13.0632 99.9902 12.9336 99.7308 12.6742C99.4852 12.4149 99.3623 12.0941 99.3623 11.7119C99.3623 11.3297 99.4852 11.009 99.7308 10.7496C99.9902 10.4903 100.311 10.3606 100.693 10.3606C101.089 10.3606 101.41 10.4903 101.655 10.7496C101.901 11.009 102.024 11.3297 102.024 11.7119C102.024 12.0941 101.901 12.4149 101.655 12.6742C101.41 12.9336 101.089 13.0632 100.693 13.0632Z" fill="white"/>
<path d="M93.1751 24.8976C92.1924 24.8976 91.3051 24.6792 90.5135 24.2424C89.7354 23.7919 89.1144 23.1777 88.6503 22.3997C88.1998 21.6216 87.9746 20.748 87.9746 19.7789C87.9746 18.8098 88.1998 17.943 88.6503 17.1786C89.1007 16.4006 89.7081 15.7864 90.4725 15.3359C91.2505 14.8855 92.1105 14.6603 93.0523 14.6603C93.9668 14.6603 94.7722 14.8718 95.4683 15.295C96.1781 15.7181 96.7309 16.2982 97.1267 17.0353C97.5362 17.7724 97.741 18.6119 97.741 19.5537C97.741 19.7175 97.7273 19.8881 97.7 20.0656C97.6864 20.2294 97.6591 20.4136 97.6181 20.6184H89.5511V18.7757H96.4511L95.6116 19.5127C95.5843 18.9122 95.4683 18.4071 95.2635 17.9976C95.0588 17.5881 94.7653 17.2742 94.3831 17.0558C94.0146 16.8374 93.5573 16.7282 93.0113 16.7282C92.4381 16.7282 91.9398 16.8511 91.5167 17.0967C91.0936 17.3424 90.766 17.6905 90.5339 18.141C90.3019 18.5777 90.1859 19.1033 90.1859 19.7175C90.1859 20.3317 90.3087 20.8709 90.5544 21.335C90.8001 21.7991 91.1482 22.1608 91.5986 22.4201C92.049 22.6658 92.5677 22.7887 93.1547 22.7887C93.6597 22.7887 94.1238 22.7 94.5469 22.5225C94.9837 22.3451 95.3523 22.0857 95.6526 21.7445L97.0858 23.1982C96.608 23.7578 96.0279 24.1809 95.3454 24.4676C94.663 24.7542 93.9395 24.8976 93.1751 24.8976Z" fill="white"/>
<path d="M82.6461 24.6927V10.77H84.8983V24.6927H82.6461ZM80.2915 16.9124V14.8649H87.2529V16.9124H80.2915Z" fill="white"/>
<path d="M73.3898 24.8976C72.5025 24.8976 71.6972 24.6723 70.9738 24.2219C70.264 23.7715 69.6975 23.164 69.2744 22.3997C68.8649 21.6216 68.6602 20.7549 68.6602 19.7994C68.6602 18.8303 68.8649 17.9635 69.2744 17.1991C69.6975 16.4211 70.264 15.8069 70.9738 15.3564C71.6972 14.8923 72.5025 14.6603 73.3898 14.6603C74.1405 14.6603 74.8025 14.8241 75.3758 15.1517C75.9627 15.4656 76.4268 15.9024 76.7681 16.462C77.1093 17.0217 77.2799 17.6564 77.2799 18.3662V21.1917C77.2799 21.9014 77.1093 22.5362 76.7681 23.0958C76.4405 23.6554 75.9832 24.099 75.3963 24.4266C74.8093 24.7406 74.1405 24.8976 73.3898 24.8976ZM73.7583 22.7682C74.591 22.7682 75.2598 22.4884 75.7648 21.9287C76.2835 21.3691 76.5429 20.6525 76.5429 19.7789C76.5429 19.192 76.4268 18.6733 76.1948 18.2228C75.9627 17.7724 75.6352 17.4243 75.212 17.1786C74.8025 16.9193 74.318 16.7896 73.7583 16.7896C73.2123 16.7896 72.7278 16.9193 72.3046 17.1786C71.8951 17.4243 71.5675 17.7724 71.3218 18.2228C71.0898 18.6733 70.9738 19.192 70.9738 19.7789C70.9738 20.3659 71.0898 20.8845 71.3218 21.335C71.5675 21.7854 71.8951 22.1403 72.3046 22.3997C72.7278 22.6454 73.2123 22.7682 73.7583 22.7682ZM76.3995 24.6928V22.0516L76.7886 19.6561L76.3995 17.281V14.865H78.6517V24.6928H76.3995Z" fill="white"/>
<path d="M63.3106 24.6927V10.77H65.5628V24.6927H63.3106ZM60.9561 16.9124V14.8649H67.9174V16.9124H60.9561Z" fill="white"/>
<path d="M56.2331 24.8976C55.6871 24.8976 55.1616 24.8293 54.6566 24.6928C54.1515 24.5427 53.6875 24.3379 53.2643 24.0786C52.8412 23.8056 52.4726 23.478 52.1587 23.0958L53.5919 21.6626C53.9332 22.0584 54.3222 22.3587 54.759 22.5635C55.2094 22.7546 55.7144 22.8501 56.2741 22.8501C56.7791 22.8501 57.1613 22.775 57.4207 22.6249C57.68 22.4747 57.8097 22.2563 57.8097 21.9697C57.8097 21.6694 57.6868 21.4374 57.4411 21.2736C57.1954 21.1098 56.8747 20.9733 56.4788 20.8641C56.0966 20.7412 55.6871 20.6184 55.2503 20.4955C54.8272 20.3727 54.4177 20.2089 54.0219 20.0041C53.6397 19.7857 53.3257 19.4923 53.08 19.1237C52.8344 18.7552 52.7115 18.2774 52.7115 17.6905C52.7115 17.0626 52.8548 16.5235 53.1415 16.073C53.4418 15.6226 53.8581 15.2745 54.3904 15.0288C54.9364 14.7831 55.5848 14.6603 56.3355 14.6603C57.1272 14.6603 57.8233 14.8036 58.4239 15.0902C59.0381 15.3632 59.55 15.7796 59.9595 16.3392L58.5263 17.7724C58.2396 17.4175 57.912 17.1513 57.5435 16.9739C57.175 16.7965 56.7518 16.7077 56.2741 16.7077C55.8236 16.7077 55.4756 16.776 55.2299 16.9125C54.9842 17.049 54.8613 17.2469 54.8613 17.5062C54.8613 17.7792 54.9842 17.9908 55.2299 18.141C55.4756 18.2911 55.7895 18.4208 56.1717 18.53C56.5675 18.6392 56.977 18.762 57.4002 18.8985C57.837 19.0214 58.2465 19.1988 58.6286 19.4308C59.0245 19.6492 59.3453 19.9495 59.591 20.3317C59.8366 20.7003 59.9595 21.1848 59.9595 21.7854C59.9595 22.7409 59.6251 23.4985 58.9562 24.0581C58.2874 24.6177 57.3797 24.8976 56.2331 24.8976Z" fill="white"/>
<path d="M41.249 24.6928V10.3606H43.6036V24.6928H41.249ZM42.8665 24.6928V22.543H50.8925V24.6928H42.8665ZM42.8665 18.4071V16.3392H50.1964V18.4071H42.8665ZM42.8665 12.5104V10.3606H50.7902V12.5104H42.8665Z" fill="white"/>
</svg>
